<svg width="100" height="100" viewBox="0 0 100 100" fill="none" xmlns="http://www.w3.org/2000/svg">
<g id="git" clip-path="url(#clip0_790_8031)">
<path id="Vector" d="M98.1 45.4999L54.5 1.8999C52 -0.600098 47.9 -0.600098 45.4 1.8999L36.3 10.9999L47.8 22.4999C50.5 21.5999 53.5 22.1999 55.7 24.2999C57.8 26.3999 58.4 29.4999 57.5 32.1999L68.6 43.2999C71.3 42.3999 74.4 42.9999 76.5 45.0999C79.5 48.0999 79.5 52.8999 76.5 55.8999C73.5 58.8999 68.7 58.8999 65.7 55.8999C63.4 53.5999 62.9 50.2999 64 47.5999L53.6 37.2999V64.4999C54.3 64.8999 55 65.3999 55.6 65.8999C58.6 68.8999 58.6 73.6999 55.6 76.6999C52.6 79.6999 47.8 79.6999 44.8 76.6999C41.8 73.6999 41.8 68.8999 44.8 65.8999C45.5 65.1999 46.4 64.5999 47.3 64.1999V36.7999C46.4 36.3999 45.5 35.7999 44.8 35.0999C42.5 32.7999 42 29.4999 43.1 26.6999L31.8 15.3999L1.90002 45.2999C-0.599976 47.7999 -0.599976 51.8999 1.90002 54.3999L45.6 98.0999C48.1 100.6 52.2 100.6 54.7 98.0999L98.2 54.5999C100.6 52.0999 100.6 48.0999 98.1 45.4999Z" fill="#757575"/>
</g>
<defs>
<clipPath id="clip0_790_8031">
<rect width="100" height="100" fill="white"/>
</clipPath>
</defs>
</svg>
