<svg width="100" height="100" viewBox="0 0 100 100" fill="none" xmlns="http://www.w3.org/2000/svg">
<g id="nextjs">
<g id="Group">
<g id="Clip path group">
<mask id="mask0_790_10131" style="mask-type:luminance" maskUnits="userSpaceOnUse" x="0" y="40" width="100" height="21">
<g id="SVGID_00000017485393226746986510000014992494078462750131_">
<path id="Vector" d="M100 40H0V60.3H100V40Z" fill="white"/>
</g>
</mask>
<g mask="url(#mask0_790_10131)">
<g id="Group_2">
<path id="Vector_2" d="M66.4999 40H83.8999V43.2H76.9999V60.1H73.4999V43.2H66.3999V40H66.4999Z" fill="black"/>
<path id="Vector_3" d="M37.7999 40V43.2H23.7999V48.4H34.9999V51.6H23.8999V56.9H37.8999V60.1H20.3999V43.2V40H37.7999Z" fill="black"/>
<path id="Vector_4" d="M46.5 40H42L58.2 60.1H62.7L54.6 50L62.7 40H58.2L52.4 47.2L46.5 40Z" fill="black"/>
<path id="Vector_5" d="M51.2 54.4001L48.9 51.6001L42 60.2001H46.5L51.2 54.4001Z" fill="black"/>
<path id="Vector_6" fill-rule="evenodd" clip-rule="evenodd" d="M20.5 60.1L4.3 40H0V60.1H3.5V44.3L16.2 60.1H20.5Z" fill="black"/>
<path id="Vector_7" d="M84.7 60C84.4 60 84.2 59.9 84.1 59.7C84 59.5 83.8 59.2999 83.8 59.0999C83.8 58.8999 83.9 58.6 84.1 58.5C84.3 58.4 84.5 58.2 84.7 58.2C84.9 58.2 85.2 58.3 85.3 58.5C85.5 58.7 85.6 58.8999 85.6 59.0999C85.6 59.2999 85.6 59.3999 85.5 59.5999C85.4 59.6999 85.3 59.8 85.2 59.9C85 60 84.8 60 84.7 60Z" fill="black"/>
<path id="Vector_8" d="M90.5999 51.5H92.0999V57.4C92.0999 57.9 91.9999 58.4 91.7999 58.8C91.5999 59.2 91.1999 59.5 90.7999 59.7C90.3999 59.9 89.8999 60 89.3999 60C88.8999 60 88.4999 59.9 88.0999 59.7C87.6999 59.5 87.3999 59.3 87.1999 58.9C86.9999 58.6 86.8999 58.1 86.8999 57.6H88.3999C88.3999 57.8 88.4999 58 88.5999 58.2C88.6999 58.4 88.7999 58.5 88.9999 58.6C89.1999 58.7 89.3999 58.7 89.5999 58.7C89.7999 58.7 90.0999 58.6 90.1999 58.5C90.3999 58.4 90.4999 58.2 90.5999 58C90.6999 57.8 90.6999 57.6 90.6999 57.3V51.5H90.5999Z" fill="black"/>
<path id="Vector_9" d="M98.4001 53.8C98.4001 53.4 98.2001 53.2 97.9001 53C97.6001 52.8 97.2001 52.7 96.8001 52.7C96.5001 52.7 96.2001 52.7 96.0001 52.8C95.8001 52.9 95.6001 53 95.5001 53.2C95.4001 53.4 95.3001 53.6 95.3001 53.8C95.3001 54 95.3001 54.1 95.4001 54.3C95.5001 54.4 95.6001 54.5 95.7001 54.6C95.8001 54.7 96.0001 54.8 96.2001 54.8C96.4001 54.9 96.5001 54.9 96.7001 55L97.5001 55.2C97.8001 55.3 98.1001 55.4 98.4001 55.5C98.7001 55.6 99.0001 55.8 99.2001 56C99.4001 56.2 99.6001 56.4 99.8001 56.7C99.9001 57 100 57.3 100 57.7C100 58.2 99.9001 58.6 99.6001 59C99.3001 59.4 99.0001 59.7 98.5001 59.9C98.0001 60.1 97.4001 60.2 96.8001 60.2C96.1001 60.2 95.6001 60.1 95.1001 59.9C94.6001 59.7 94.2001 59.4 94.0001 59C93.7001 58.6 93.6001 58.1 93.6001 57.6H95.0001C95.0001 57.9 95.1001 58.1 95.3001 58.3C95.5001 58.5 95.7001 58.6 95.9001 58.7C96.2001 58.8 96.5001 58.8 96.8001 58.8C97.1001 58.8 97.4001 58.7 97.7001 58.6C98.0001 58.5 98.2001 58.4 98.3001 58.2C98.4001 58 98.5001 57.8 98.5001 57.6C98.5001 57.4 98.4001 57.2 98.3001 57.1C98.2001 57 98.0001 56.8 97.8001 56.7C97.6001 56.6 97.3001 56.5 97.0001 56.4L96.0001 56.2C95.3001 56 94.7001 55.8 94.3001 55.4C93.9001 55 93.7001 54.6 93.7001 54C93.7001 53.5 93.8001 53.1 94.1001 52.7C94.4001 52.3 94.7001 52 95.2001 51.8C95.7001 51.6 96.2001 51.5 96.8001 51.5C97.4001 51.5 97.9001 51.6 98.4001 51.8C98.9001 52 99.2001 52.3 99.5001 52.7C99.8001 53.1 99.9001 53.5 99.9001 54H98.4001V53.8Z" fill="black"/>
</g>
</g>
</g>
</g>
</g>
</svg>
