<svg width="447" height="424" viewBox="0 0 447 424" fill="none" xmlns="http://www.w3.org/2000/svg">
<path d="M289.252 11.1337C318.431 3.31533 348.423 20.6312 356.241 49.8098L435.354 345.061C443.172 374.239 425.856 404.231 396.678 412.05C367.499 419.868 337.507 402.552 329.689 373.373L250.576 78.1227C242.758 48.9441 260.074 18.9521 289.252 11.1337Z" fill="white" stroke="white" stroke-width="18"/>
<path d="M128.88 10.955C145.589 6.70376 162.506 10.6554 175.319 20.3192C187.038 28.9776 194.841 42.0318 196.952 56.4061L274.297 345.06L274.476 345.744C281.786 374.478 264.842 403.826 236.303 411.862L235.621 412.05C206.67 419.807 176.919 402.821 168.819 374.055L168.632 373.373L142.634 276.35L116.54 373.737C108.783 402.688 79.1972 419.96 50.2354 412.592L49.5508 412.413C20.3726 404.594 3.05684 374.603 10.875 345.425L89.3789 50.3085C94.1563 31.8492 108.463 16.4211 128.195 11.1337L128.88 10.955Z" fill="white" stroke="white" stroke-width="18"/>
</svg>
